<svg width="512" height="424" viewBox="0 0 512 424" fill="none" xmlns="http://www.w3.org/2000/svg">
<path d="M282.931 424C259.8 424 241.431 408.103 238.127 385.103L189.355 43.877C189.176 42.629 188.798 40.002 184.87 40C184.868 40 184.865 40 184.863 40C180.94 40 180.56 42.624 180.377 43.885L145.641 287.416C142.483 309.159 124.988 324.986 103.09 325.955C81.189 326.922 62.368 312.703 57.314 291.374C57.295 291.297 57.278 291.221 57.261 291.144L46.047 241.197C43 228.535 31.819 219 20 219C8.954 219 0 210.046 0 199C0 187.954 8.954 179 20 179C50.372 179 77.705 201.321 84.993 232.074C85.012 232.151 85.029 232.227 85.046 232.304L96.262 282.259C96.544 283.431 97.326 286.163 101.322 285.993C105.455 285.81 105.886 282.836 106.049 281.716L140.785 38.185C144.055 15.677 162.176 0 184.863 0H184.902C207.609 0.018 225.722 15.728 228.951 38.204L277.722 379.429C277.903 380.688 278.43 384.095 283.091 383.999C287.793 383.928 288.177 380.534 288.322 379.256L295.125 318.765C296.359 307.788 306.259 299.888 317.235 301.126C328.212 302.36 336.109 312.259 334.874 323.236L328.069 383.74C325.427 407.094 307.179 423.642 283.692 423.995C283.438 423.998 283.184 424 282.931 424V424ZM452.184 276.367C452.204 276.288 452.223 276.209 452.242 276.13L459.304 246.163C463.205 230.67 477.243 219 492 219C503.046 219 512 210.046 512 199C512 187.954 503.046 179 492 179C458.846 179 428.758 203.231 420.458 236.617C420.438 236.696 420.419 236.776 420.4 236.855L413.337 266.829C413.099 267.771 412.675 269.082 410.329 268.996C407.884 268.9 407.642 267.447 407.49 266.538L391.794 170.792C388.386 150.348 371.544 136.438 350.816 136.993C330.097 137.537 313.999 152.301 311.669 172.896L303.2 247.751C301.958 258.727 309.849 268.631 320.825 269.873C331.804 271.116 341.705 263.224 342.947 252.248L351.416 177.393C351.434 177.241 351.454 177.119 351.474 177.024C351.711 176.971 352.026 176.962 352.264 177.003C352.286 177.086 352.31 177.19 352.331 177.315L368.027 273.061C371.415 293.392 388.166 308.156 408.761 308.965C409.352 308.988 409.939 309 410.525 309C430.368 309 447.354 295.796 452.184 276.367V276.367Z" fill="#5089C6" fill-opacity="0.78"/>
</svg>
